<svg xmlns="http://www.w3.org/2000/svg" viewBox="0 0 500 500"><g id="freepik--Shadow--inject-224"><ellipse id="freepik--path--inject-224" cx="250" cy="416.24" rx="193.89" ry="11.32" style="fill:#f5f5f5"></ellipse></g><g id="freepik--Coin--inject-224"><path d="M311.39,113.65a35.45,35.45,0,1,0-45.31,34l9.86,9.86,9.85-9.86A35.46,35.46,0,0,0,311.39,113.65Z" style="fill:#5956A5"></path><path d="M277.64,89.93h-3.41v46.76h3.41a23.38,23.38,0,0,0,0-46.76Z" style="fill:#fafafa;opacity:0.6000000000000001"></path><circle cx="274.23" cy="113.31" r="23.38" transform="translate(0.2 227.1) rotate(-45)" style="fill:#fafafa"></circle><path d="M287.52,101a18.15,18.15,0,0,0-25.79,25.49A18.14,18.14,0,1,1,287.52,101Z" style="fill:#5956A5;opacity:0.2"></path><g style="opacity:0.2"><path d="M281.16,108.43l-4.47.7a5.11,5.11,0,0,0-.61-1.18,3.07,3.07,0,0,0-.9-.67v3.48a13,13,0,0,1,4.88,2.06,4.72,4.72,0,0,1,1.63,3.69,5,5,0,0,1-.59,2.41,5.82,5.82,0,0,1-1.49,1.83,5.92,5.92,0,0,1-1.93,1.06,9.44,9.44,0,0,1-2.5.39v.61a.87.87,0,0,1-.87.88h0a.87.87,0,0,1-.88-.88v-.61a10.74,10.74,0,0,1-2.87-.57,5.86,5.86,0,0,1-1.9-1.15,5.64,5.64,0,0,1-1.23-1.58,7.16,7.16,0,0,1-.65-2.05l4.86-.56a4.66,4.66,0,0,0,.58,1.72,3,3,0,0,0,1.21.93V114.7a22.68,22.68,0,0,1-3.45-1.17,4.58,4.58,0,0,1-2.5-4.24,4.76,4.76,0,0,1,1.49-3.57,6.79,6.79,0,0,1,4.46-1.6v-.31a.87.87,0,0,1,.88-.88h0a.87.87,0,0,1,.87.88v.31a7.34,7.34,0,0,1,4.12,1.28A5.08,5.08,0,0,1,281.16,108.43Zm-7.73-1.21a2.22,2.22,0,0,0-1.07.63,1.36,1.36,0,0,0-.3.88,1.48,1.48,0,0,0,.3.93,2.26,2.26,0,0,0,1.07.65Zm1.75,11.84a2.79,2.79,0,0,0,1.5-.75,1.69,1.69,0,0,0,.47-1.18,1.58,1.58,0,0,0-.4-1,3.63,3.63,0,0,0-1.57-.88Z" style="fill:#5956A5"></path></g></g><g id="freepik--character-1--inject-224"><path d="M193.66,145.19c2.5-10.95-2.94-17.11-11.28-20.62s-25.16-2-23.63,12.71a21.39,21.39,0,0,0,2,7.35c-3.89,5.62-3,14.23,4.53,16,8.51,2,27.9-.55,33.68-3.76C195.16,157.59,191.68,153.87,193.66,145.19Z" style="fill:#263238"></path><path d="M199.21,156a4.35,4.35,0,0,1-3-1.2c-1.18-1.11-3-3.93-1.91-10.47,1.62-9.64-2.42-16-12.37-19.56a.13.13,0,0,1-.07-.16.12.12,0,0,1,.16-.08c10.07,3.57,14.17,10.06,12.53,19.84-1.08,6.42.68,9.18,1.83,10.24a4.14,4.14,0,0,0,3.94,1,.13.13,0,0,1,.15.1.12.12,0,0,1-.09.15A5.18,5.18,0,0,1,199.21,156Z" style="fill:#263238"></path><path d="M164.07,160h0a7,7,0,0,1-6-5.11,10.12,10.12,0,0,1,2.74-10.52.12.12,0,1,1,.16.18,9.88,9.88,0,0,0-2.66,10.26,6.71,6.71,0,0,0,5.76,4.94.14.14,0,0,1,.11.14A.13.13,0,0,1,164.07,160Z" style="fill:#263238"></path><path d="M202.1,181.25c.22,2.39.51,5,.87,7.49s.72,5,1.22,7.52A102.08,102.08,0,0,0,208,210.8l.66,1.72.3.79s0,0-.08,0a1.2,1.2,0,0,0-.72-.34c-.15,0,.05.07.37,0a10.47,10.47,0,0,0,2.63-1.11,32.46,32.46,0,0,0,3-1.92c2-1.43,4-3,5.91-4.71s3.87-3.44,5.72-5.18l3.32,2.81a78.14,78.14,0,0,1-10.69,12.33A37.74,37.74,0,0,1,215,217.9a16.91,16.91,0,0,1-4.44,2.3,8.42,8.42,0,0,1-3.53.37,6.56,6.56,0,0,1-4.11-2.18,7.83,7.83,0,0,1-1.12-1.69,2.53,2.53,0,0,1-.15-.31l-.11-.24-.22-.48-.86-1.92A88.37,88.37,0,0,1,195.67,198c-.58-2.66-1.08-5.33-1.46-8s-.7-5.33-.86-8.18Z" style="fill:#ffc3bd"></path><path d="M198.78,171.36c3,.77,4.74,20.8,4.74,20.8L195.46,197s-4.87-14.8-4.12-21.19C191.88,171.18,196.5,170.78,198.78,171.36Z" style="fill:#ffc3bd"></path><path d="M225.69,199.49l4.63-7.32,2.63,8.32s-3.8,4-7.24,3Z" style="fill:#ffc3bd"></path><polygon points="237.12 189.75 238.94 196.83 232.95 200.49 230.32 192.17 237.12 189.75" style="fill:#ffc3bd"></polygon><polygon points="181.56 406.81 190.14 406.81 193.79 375.3 182.01 375.3 181.56 406.81" style="fill:#ffc3bd"></polygon><polygon points="127.68 395.23 135.99 397.38 148.75 368.46 137.25 365.21 127.68 395.23" style="fill:#ffc3bd"></polygon><path d="M137.31,396l-8.87-3.77a.68.68,0,0,0-.86.27l-4,6.59a1.37,1.37,0,0,0,.67,1.94c3.11,1.26,4.68,1.71,8.58,3.37,2.4,1,5.8,2.76,9.11,4.17s4.89-1.79,3.63-2.68c-5.62-4-5.82-6.21-7.16-8.84A2.22,2.22,0,0,0,137.31,396Z" style="fill:#263238"></path><path d="M190.44,405.81H180.8a.69.69,0,0,0-.69.59L179,414a1.38,1.38,0,0,0,1.38,1.52c3.36-.06,5-.25,9.22-.25,2.61,0,8,.27,11.6.27s3.79-3.56,2.29-3.88c-6.72-1.45-9.37-3.45-11.63-5.35A2.26,2.26,0,0,0,190.44,405.81Z" style="fill:#263238"></path><path d="M199.32,171.34s4.09,1.44-4.1,51.78H160.37c.59-14.18.61-22.92-6.17-52a104.21,104.21,0,0,1,14.79-2,111.32,111.32,0,0,1,15.83,0C191.61,169.77,199.32,171.34,199.32,171.34Z" style="fill:#263238"></path><path d="M170.56,151.33c1,5.09,2,14.42-1.57,17.81a60.33,60.33,0,0,0,15.35,11.77c4.95-8,.48-11.76.48-11.76-5.68-1.36-5.53-5.57-4.55-9.53Z" style="fill:#ffc3bd"></path><path d="M174.52,154.71l5.75,4.91a16.22,16.22,0,0,0-.49,2.81c-2.17-.32-5.15-2.7-5.38-5A7.85,7.85,0,0,1,174.52,154.71Z" style="opacity:0.2"></path><path d="M165.19,142c2,8.28,2.67,11.82,7.65,15.37,7.51,5.34,17.24,1.07,17.75-7.63.47-7.84-2.87-20.06-11.65-21.94A11.62,11.62,0,0,0,165.19,142Z" style="fill:#ffc3bd"></path><path d="M195.22,223.12s6.77,66.09,6.2,92.25c-.58,27.22-6,60.87-6,60.87H180.46s.64-32.06-.38-58.79c-1.12-29.13-10.38-94.33-10.38-94.33Z" style="fill:#5956A5"></path><polygon points="179.18 377.74 196.05 377.74 197.29 373.39 178.4 372.86 179.18 377.74" style="fill:#263238"></polygon><path d="M180.19,239.57c8.56,17.21,1.72,48.62-1.31,60.3-1.55-17.55-4.17-39-6.21-54.75C174,236.21,176.24,231.63,180.19,239.57Z" style="opacity:0.2"></path><path d="M186,223.12s-7.9,68.71-13.86,90.77c-7.07,26.19-21.54,55.1-21.54,55.1l-15-4.23s8.41-35.3,13.82-49.1c11.55-29.44,1.67-73.32,10.89-92.54Z" style="fill:#5956A5"></path><polygon points="134.73 367.04 150.29 371.35 153.09 367.37 135.84 361.62 134.73 367.04" style="fill:#263238"></polygon><path d="M179.17,142.16c.13.68.58,1.17,1,1.09s.71-.7.59-1.38-.58-1.17-1-1.09S179.05,141.48,179.17,142.16Z" style="fill:#263238"></path><path d="M186.88,140.79c.12.69.58,1.17,1,1.1s.71-.7.59-1.38-.58-1.17-1-1.09S186.76,140.11,186.88,140.79Z" style="fill:#263238"></path><path d="M187.27,139.49l1.56-.76S188.21,140.16,187.27,139.49Z" style="fill:#263238"></path><path d="M184.69,142.25a18.61,18.61,0,0,0,3.2,3.92,2.94,2.94,0,0,1-2.34.88Z" style="fill:#ed847e"></path><path d="M181.94,150.27a6.87,6.87,0,0,0,1.16-.11.2.2,0,0,0,.17-.23.21.21,0,0,0-.24-.17,5.45,5.45,0,0,1-4.77-1.33.22.22,0,0,0-.29,0,.21.21,0,0,0,0,.29A5.68,5.68,0,0,0,181.94,150.27Z" style="fill:#263238"></path><path d="M175.16,126.18c5.33,1.39,8.39,2.13,10.12,3.67,5,4.44-13.51,5-12.95,5.73,2.72,10.1-4.06,17.71-8,9.32S157.6,132.46,164,129,175.16,126.18,175.16,126.18Z" style="fill:#263238"></path><path d="M164.84,148.23a6.2,6.2,0,0,0,3.37,3.35c2,.82,3.27-.94,2.91-3-.32-1.83-1.77-4.46-3.9-4.41A2.79,2.79,0,0,0,164.84,148.23Z" style="fill:#ffc3bd"></path><path d="M176.19,137.6a.39.39,0,0,0,.3-.13,3.19,3.19,0,0,1,2.73-1.05.42.42,0,0,0,.48-.33.41.41,0,0,0-.33-.47,4,4,0,0,0-3.47,1.3.4.4,0,0,0,0,.57A.43.43,0,0,0,176.19,137.6Z" style="fill:#263238"></path><path d="M188.8,136.56a.41.41,0,0,0,.29-.69,4,4,0,0,0-3.48-1.29.41.41,0,0,0-.32.48.4.4,0,0,0,.47.32,3.26,3.26,0,0,1,2.75,1.05A.41.41,0,0,0,188.8,136.56Z" style="fill:#263238"></path><path d="M158.55,183.58c-1.73,4.52-3.39,9.27-4.85,13.94a101.12,101.12,0,0,0-3.42,14.08c-.11.59-.16,1.15-.22,1.72l-.09.85,0,.37s0,0,0,0a4.65,4.65,0,0,0,.71,1.86,33.84,33.84,0,0,0,4.11,5.39c3.21,3.58,6.91,7,10.56,10.38l-2.52,3.53A84,84,0,0,1,150,226.6a34.8,34.8,0,0,1-5.73-6.16,11.57,11.57,0,0,1-2.17-5.12,6.05,6.05,0,0,1,0-1c0-.21,0-.22,0-.33l0-.26,0-1c0-.7.07-1.39.15-2.06a86.73,86.73,0,0,1,3.12-15.6,135.35,135.35,0,0,1,5.08-14.8Z" style="fill:#ffc3bd"></path><path d="M154.23,171.09c-3.41,1.4-7.69,20.11-7.69,20.11l7.27,6s6.84-13.95,7.14-20.38C161.18,172,157.26,169.86,154.23,171.09Z" style="fill:#ffc3bd"></path><path d="M141.22,398.7a1.15,1.15,0,0,0,.62-.81.68.68,0,0,0-.15-.68c-.74-.81-3.8-.28-4.14-.22a.23.23,0,0,0-.17.16.24.24,0,0,0,.08.21c.92.67,2.62,1.75,3.65,1.39Zm-3.12-1.38c1.23-.18,2.9-.26,3.29.16a.31.31,0,0,1,.06.31.77.77,0,0,1-.48.58C140.42,398.57,139.36,398.17,138.1,397.32Z" style="fill:#5956A5"></path><path d="M139,396.94c.89-.43,1.8-1.1,1.93-1.71a.7.7,0,0,0-.41-.79,1.09,1.09,0,0,0-.9-.09c-1.17.4-2.15,2.67-2.19,2.76a.22.22,0,0,0,0,.21.24.24,0,0,0,.19.08A4.82,4.82,0,0,0,139,396.94Zm.63-2.15.12-.05a.67.67,0,0,1,.57.05c.23.13.23.26.21.36-.12.59-1.56,1.48-2.56,1.76A5.12,5.12,0,0,1,139.6,394.79Z" style="fill:#5956A5"></path><path d="M193.66,407.31a3.26,3.26,0,0,0,2.08-.52,1.13,1.13,0,0,0,.36-1,.64.64,0,0,0-.34-.54c-1-.58-4.47,1.17-4.86,1.37a.22.22,0,0,0-.11.21.23.23,0,0,0,.17.17A14.93,14.93,0,0,0,193.66,407.31Zm1.53-1.77a.79.79,0,0,1,.37.07.26.26,0,0,1,.14.22.73.73,0,0,1-.23.65c-.53.47-1.94.55-3.84.24A10.92,10.92,0,0,1,195.19,405.54Z" style="fill:#5956A5"></path><path d="M191,407a.13.13,0,0,0,.08,0c1-.46,3-2.31,2.89-3.28,0-.23-.2-.52-.77-.57a1.44,1.44,0,0,0-1.12.35c-1.08.9-1.28,3.2-1.29,3.3a.21.21,0,0,0,.09.18A.16.16,0,0,0,191,407Zm2-3.48h.12c.37,0,.4.19.41.23.09.59-1.28,2-2.32,2.67a4.68,4.68,0,0,1,1.09-2.64A1,1,0,0,1,193,403.53Z" style="fill:#5956A5"></path><path d="M159.85,221.08,159,224.2c-.12.24.17.49.57.49h35.86c.31,0,.57-.16.59-.36l.32-3.11c0-.22-.25-.4-.6-.4H160.42A.63.63,0,0,0,159.85,221.08Z" style="fill:#5956A5"></path><path d="M159.85,221.08,159,224.2c-.12.24.17.49.57.49h35.86c.31,0,.57-.16.59-.36l.32-3.11c0-.22-.25-.4-.6-.4H160.42A.63.63,0,0,0,159.85,221.08Z" style="fill:#fff;opacity:0.8"></path><path d="M164.59,225h-.94c-.19,0-.33-.09-.32-.21l.44-4.05c0-.12.18-.22.37-.22h.94c.19,0,.33.1.32.22l-.44,4.05C164.94,224.93,164.78,225,164.59,225Z" style="fill:#5956A5"></path><path d="M192.73,225h-.94c-.19,0-.33-.09-.32-.21l.44-4.05c0-.12.18-.22.37-.22h.95c.18,0,.33.1.31.22l-.44,4.05C193.09,224.93,192.92,225,192.73,225Z" style="fill:#5956A5"></path><path d="M178.66,225h-.94c-.19,0-.33-.09-.32-.21l.44-4.05c0-.12.18-.22.37-.22h.94c.19,0,.34.1.32.22l-.44,4.05C179,224.93,178.85,225,178.66,225Z" style="fill:#5956A5"></path><path d="M162.28,282.79l42.55.7-7.11-60.37,2-27.13-4.83-4.87c.5-17-2-21.16-2-21.16l-3.42-.54c3,4.41,2.5,16.62,2,20.79-7.06-1.25-17.13,0-17.13,0-.52-12.34-8.24-21.35-8.24-21.35l-3,.51c6.84,7.84,8.21,21.7,8.21,21.7L164,197.68l1,6.41a12.82,12.82,0,0,1-5.09.28l.2,2.81a8.76,8.76,0,0,0,5.3-.48l2.47,16.05Z" style="fill:#fff"></path><path d="M164.34,231.4l9.24.79-6.17,6.16s-5.29-1.53-6-5Z" style="fill:#ffc3bd"></path><polygon points="178.86 237.1 173.41 241.99 166.1 237.87 173.58 232.19 178.86 237.1" style="fill:#ffc3bd"></polygon><path d="M179.57,140.85l1.56-.76S180.51,141.52,179.57,140.85Z" style="fill:#263238"></path><path d="M114.16,237.8H276.22a7.27,7.27,0,0,1,7.27,7.27V416.28a0,0,0,0,1,0,0H114.16a0,0,0,0,1,0,0V237.8a0,0,0,0,1,0,0Z" style="fill:#5956A5"></path><rect x="114.16" y="237.8" width="39.62" height="178.48" style="opacity:0.30000000000000004"></rect><rect x="114.16" y="243.29" width="169.33" height="5.49" style="opacity:0.30000000000000004"></rect><path d="M279.18,237.8h-165v7.42H286.6A7.42,7.42,0,0,0,279.18,237.8Z" style="fill:#263238"></path><path d="M235.15,213H210.21a24.79,24.79,0,0,0-24.79,24.8h49.73Z" style="fill:#5956A5"></path><path d="M235.15,213H210.21a24.79,24.79,0,0,0-24.79,24.8h49.73Z" style="fill:#fff;opacity:0.5"></path><path d="M235.15,213h28.06a.94.94,0,0,1,.94.94V237.8a0,0,0,0,1,0,0h-29a0,0,0,0,1,0,0V213A0,0,0,0,1,235.15,213Z" style="fill:#5956A5"></path><path d="M235.15,213h28.06a.94.94,0,0,1,.94.94V237.8a0,0,0,0,1,0,0h-29a0,0,0,0,1,0,0V213A0,0,0,0,1,235.15,213Z" style="fill:#fff;opacity:0.7000000000000001"></path><path d="M227.74,209.67h31A3.33,3.33,0,0,1,262,213H224.41A3.33,3.33,0,0,1,227.74,209.67Z" style="fill:#5956A5"></path><path d="M227.74,209.67a3.33,3.33,0,0,0-3.33,3.33h10.2a3.33,3.33,0,0,1,3.34-3.33Z" style="opacity:0.30000000000000004"></path></g><g id="freepik--character-2--inject-224"><rect x="269.32" y="187.75" width="19.33" height="10.67" rx="1.19" transform="translate(298.65 531.79) rotate(-128.01)" style="fill:#5956A5"></rect><rect x="270.57" y="190.72" width="19.33" height="2.78" transform="translate(301.44 531.2) rotate(-128.01)" style="fill:#263238"></rect><rect x="271.2" y="189.47" width="6.11" height="2.78" transform="translate(292.75 524.47) rotate(-128.01)" style="fill:#fff"></rect><path d="M380.8,176.62c.25.38.38.58.54.85l.45.74c.29.5.54,1,.8,1.49.5,1,1,2,1.4,3a55.2,55.2,0,0,1,2.16,6.09,63,63,0,0,1,2.37,12.54l.08.79a3,3,0,0,1,0,.48l0,.53a14,14,0,0,1-.12,2.08,16.6,16.6,0,0,1-1,3.73,25.25,25.25,0,0,1-3.46,6,42.45,42.45,0,0,1-9.31,8.81L372,220.48a57.35,57.35,0,0,0,6.64-9.19,21,21,0,0,0,2-4.72,9.53,9.53,0,0,0,.33-2.14,4.69,4.69,0,0,0,0-.93l0-.21a1.3,1.3,0,0,0,0-.28l-.12-.7a79.26,79.26,0,0,0-2.72-11c-.58-1.79-1.29-3.52-2-5.21-.36-.85-.75-1.68-1.15-2.48l-.63-1.18-.3-.55-.26-.44Z" style="fill:#ff8b7b"></path><path d="M371.46,223.77l3.63,7.65L378,225s-2.55-5.6-6-5.08Z" style="fill:#ff8b7b"></path><polygon points="380.83 231.42 383.71 226.7 377.96 224.95 375.09 231.42 380.83 231.42" style="fill:#ff8b7b"></polygon><path d="M361.4,408.22a10.09,10.09,0,0,0,2.21-.3.2.2,0,0,0,.07-.36c-.29-.19-2.83-1.83-3.81-1.39a.66.66,0,0,0-.39.56,1.1,1.1,0,0,0,.33,1A2.35,2.35,0,0,0,361.4,408.22Zm1.65-.59c-1.46.3-2.55.25-3-.14a.77.77,0,0,1-.2-.71.27.27,0,0,1,.17-.25C360.55,406.29,362,407,363.05,407.63Z" style="fill:#5956A5"></path><path d="M363.57,407.92l.1,0a.22.22,0,0,0,.1-.18c0-.1,0-2.51-.93-3.32a1,1,0,0,0-.83-.26.68.68,0,0,0-.67.55c-.19.95,1.33,2.75,2.13,3.21Zm-1.43-3.39a.61.61,0,0,1,.44.17,4.53,4.53,0,0,1,.78,2.64c-.8-.64-1.75-2-1.63-2.57,0-.09.07-.21.32-.24Z" style="fill:#5956A5"></path><path d="M309.26,404.52a.19.19,0,0,0,.17-.1.2.2,0,0,0,0-.23c-.26-.32-2.59-3.06-3.79-3.06h-.07a.66.66,0,0,0-.52.36,1.14,1.14,0,0,0,0,1c.53,1.1,2.88,1.72,4.23,2Zm-3.63-3c.66,0,2.1,1.36,3.09,2.47-1.83-.43-3.07-1-3.37-1.65a.73.73,0,0,1,0-.67.25.25,0,0,1,.21-.15Z" style="fill:#5956A5"></path><path d="M309.26,404.52h0a.2.2,0,0,0,.15-.13c0-.09.71-2.25.08-3.46a1.46,1.46,0,0,0-.88-.74c-.53-.16-.79,0-.91.23-.5.82.63,3.24,1.38,4A.19.19,0,0,0,309.26,404.52Zm-1-4a.85.85,0,0,1,.24,0,1.05,1.05,0,0,1,.65.54,4.6,4.6,0,0,1,0,2.8c-.7-1-1.39-2.79-1.09-3.28A.21.21,0,0,1,308.29,400.52Z" style="fill:#5956A5"></path><path d="M363,147.33c-1,5-3.17,15.81.31,19.13,0,0-1.36,5-10.59,5-10.16,0-4.86-5-4.86-5,5.55-1.32,5.4-5.44,4.44-9.3Z" style="fill:#ff8b7b"></path><path d="M346,135.61a.58.58,0,0,0,.18,0,.4.4,0,0,0,.18-.54,4,4,0,0,0-2.88-2.2.41.41,0,0,0-.44.35.4.4,0,0,0,.35.44h0a3.16,3.16,0,0,1,2.26,1.77A.39.39,0,0,0,346,135.61Z" style="fill:#263238"></path><path d="M343,140a18.26,18.26,0,0,1-2.92,4,2.91,2.91,0,0,0,2.33.74Z" style="fill:#ff5652"></path><path d="M343.76,138.87c-.09.67-.51,1.17-.95,1.12s-.72-.64-.64-1.31.51-1.17.94-1.12S343.84,138.2,343.76,138.87Z" style="fill:#263238"></path><path d="M343.3,137.62l-1.55-.66S342.42,138.32,343.3,137.62Z" style="fill:#263238"></path><polygon points="318.13 407.66 309.97 405.78 313.8 386.75 321.96 388.64 318.13 407.66" style="fill:#ff8b7b"></polygon><polygon points="373.31 407.72 364.93 407.72 365.59 388.33 373.97 388.33 373.31 407.72" style="fill:#ff8b7b"></polygon><path d="M364.27,406.75h9.41a.67.67,0,0,1,.67.58l1.07,7.44a1.34,1.34,0,0,1-1.34,1.49c-3.28-.05-4.86-.25-9-.25-2.55,0-6.27.27-9.78.27s-3.71-3.48-2.24-3.79c6.56-1.42,7.6-3.36,9.81-5.22A2.17,2.17,0,0,1,364.27,406.75Z" style="fill:#263238"></path><path d="M310.14,403.63l8.69,3.61a.66.66,0,0,1,.4.78l-1.87,7.29a1.34,1.34,0,0,1-1.81.86c-3-1.31-4.39-2.09-8.21-3.68-2.36-1-7.32-2.75-10.57-4.1s-2.09-4.63-.61-4.36c6.6,1.22,9.73.41,12.49-.46A2.18,2.18,0,0,1,310.14,403.63Z" style="fill:#263238"></path><polygon points="313.8 386.76 311.75 396.95 319.99 398.45 321.96 388.64 313.8 386.76" style="opacity:0.2"></polygon><polygon points="373.97 388.33 365.59 388.33 365.25 398.33 373.63 398.33 373.97 388.33" style="opacity:0.2"></polygon><path d="M377.73,168.36c3.48.77,7.19,13.28,7.19,13.28l-9.83,10.47s-8.17-11.76-6.5-16.09C370.32,171.52,373.62,167.46,377.73,168.36Z" style="fill:#5956A5"></path><path d="M372.21,176.33c-1.76-1.61-2.95-1.13-3.76.15-.8,3.72,3.94,11.51,5.85,14.46C375.18,187.42,376.19,180,372.21,176.33Z" style="opacity:0.4"></path><path d="M333.68,168.61s-4,1.4,4,50.55h34c-.57-13.84-.59-22.38,6-50.8a100.28,100.28,0,0,0-14.45-1.9,107.55,107.55,0,0,0-15.45,0C341.2,167.07,333.68,168.61,333.68,168.61Z" style="fill:#5956A5"></path><path d="M343.29,165.42c1.34-.69,11.91-2.81,19.79-2.48,4.5.19,7.08.77,9,1.88s-.67,7.1-2.1,7.86c.86,2.24-2.22,5.21-4,6.63-.54,2.15-8,4.32-12.95-.11C349.23,175.8,339.46,167.38,343.29,165.42Z" style="fill:#263238"></path><path d="M333.37,187.47c.22,2.39.51,5.08.89,8.12,2.79-2.51,5.07-9.65,4.23-13.81A24.59,24.59,0,0,0,333.37,187.47Z" style="opacity:0.4"></path><path d="M337,180a147.79,147.79,0,0,1-6.3,13.78c-1.15,2.26-2.38,4.49-3.72,6.69a58,58,0,0,1-4.5,6.52l-.65.8-.16.2-.28.3a6.37,6.37,0,0,1-.59.57,8.66,8.66,0,0,1-2.78,1.67,11.51,11.51,0,0,1-5.37.48,25.77,25.77,0,0,1-8.06-2.73A62.21,62.21,0,0,1,292,199.38l2.58-3.37c2,1.2,4.17,2.4,6.29,3.47a54.08,54.08,0,0,0,6.41,2.87,21.06,21.06,0,0,0,6.09,1.47,4.07,4.07,0,0,0,1.92-.31.91.91,0,0,0,.34-.28l.69-1A96.25,96.25,0,0,0,323.13,190c2.07-4.32,4.05-8.81,5.93-13.19Z" style="fill:#ff8b7b"></path><path d="M333.68,168.61c-4.17,1-9.29,12.44-9.29,12.44l8.64,12.7s11.5-14.49,10.14-18.91C341.74,170.23,338.73,167.37,333.68,168.61Z" style="fill:#5956A5"></path><path d="M293.85,200.05l-7.94.09,2.27-6.84s6.22.85,8.19,3.72Z" style="fill:#ff8b7b"></path><polygon points="279.99 199.26 281.51 193.3 288.18 193.3 285.91 200.14 279.99 199.26" style="fill:#ff8b7b"></polygon><path d="M366.59,139.36c-1.53,8.17-2,11.67-6.68,15.38-7,5.58-16.75,1.92-17.7-6.54-.85-7.62,1.79-19.7,10.25-22A11.34,11.34,0,0,1,366.59,139.36Z" style="fill:#ff8b7b"></path><path d="M348.88,139.17c-1.61,2.05-13,15.16-6.46,20.25,20.37-1.59,26.18,5.47,31.83-4.59s6.52-27.39-9.2-30.33S340.71,125.22,348.88,139.17Z" style="fill:#263238"></path><path d="M345.75,138.8a6.19,6.19,0,0,0-1.68,4.32c.05,2.13,2.05,2.54,3.7,1.41,1.49-1,3.25-3.34,2.41-5.22A2.63,2.63,0,0,0,345.75,138.8Z" style="fill:#ff8b7b"></path><path d="M346.66,219.16s4.86,57.49,9.91,89.89c4.07,26.17,7.28,87.34,7.28,87.34h11.43s4.06-59.34,2-85.22c-5.23-65.5,6.44-70.84-5.57-92Z" style="fill:#263238"></path><path d="M356.16,238.35a44.87,44.87,0,0,0-6.31,14.82c1,9.7,2.11,20.43,3.35,30.75C356.38,275.32,359.86,257.9,356.16,238.35Z" style="opacity:0.4"></path><path d="M337.68,219.16s-9.44,64.5-12.76,89.84c-3.45,26.35-13.53,85.42-13.53,85.42l11.19,1.72s19.09-56.12,22.64-82c3.87-28.2,18.46-95,18.46-95Z" style="fill:#263238"></path><polygon points="309.74 394.47 324.08 396.91 325.71 391.5 310.36 388.87 309.74 394.47" style="fill:#5956A5"></polygon><polygon points="362.29 396.62 376.84 396.62 377.6 391.52 362.21 391 362.29 396.62" style="fill:#5956A5"></polygon><path d="M372.21,217.16l1.53,3.05c.12.24-.16.48-.55.48H337.51c-.31,0-.56-.15-.58-.35l-.31-3c0-.21.25-.39.58-.39h34.45A.63.63,0,0,1,372.21,217.16Z" style="fill:#ebebeb"></path><path d="M367.58,221h.92c.19,0,.33-.1.31-.21l-.43-4c0-.12-.17-.21-.36-.21h-.92c-.18,0-.32.09-.31.21l.43,4C367.24,220.92,367.4,221,367.58,221Z" style="fill:#263238"></path><path d="M345.22,221h.92c.18,0,.32-.1.31-.21l-.43-4c0-.12-.18-.21-.36-.21h-.92c-.19,0-.33.09-.31.21l.43,4C344.87,220.92,345,221,345.22,221Z" style="fill:#263238"></path></g></svg>